<?xml version="1.0" encoding="utf-8"?>
<!-- Svg Vector Icons : http://www.onlinewebfonts.com/icon -->
<!DOCTYPE svg PUBLIC "-//W3C//DTD SVG 1.1//EN" "http://www.w3.org/Graphics/SVG/1.1/DTD/svg11.dtd">
<svg version="1.1" xmlns="http://www.w3.org/2000/svg" xmlns:xlink="http://www.w3.org/1999/xlink" x="16px" y="16px" viewBox="0 0 1000 1000" enable-background="new 0 0 1000 1000" xml:space="preserve">
<metadata> Svg Vector Icons : http://www.onlinewebfonts.com/icon </metadata>
<g><g><path d="M899.5,380.5l-350-350c-27.3-27.3-71.7-27.3-99,0l-350,350c-27.3,27.3-27.3,71.7,0,99s71.7,27.3,99,0L430,249v671c0,38.7,31.3,70,70,70c38.7,0,70-31.3,70-70V249l230.5,230.5c13.7,13.7,31.6,20.5,49.5,20.5c17.9,0,35.8-6.8,49.5-20.5C926.8,452.2,926.8,407.8,899.5,380.5z"/></g><g></g><g></g><g></g><g></g><g></g><g></g><g></g><g></g><g></g><g></g><g></g><g></g><g></g><g></g><g></g></g>
</svg>